<svg width="764" height="425" viewBox="0 0 764 425" fill="none" xmlns="http://www.w3.org/2000/svg">
<g clip-path="url(#clip0_3_1607)">
<g filter="url(#filter0_d_3_1607)">
<path d="M619.697 729.663L-252.43 950.264C-332.123 970.422 -417.051 938.498 -442.116 878.958L-649.745 385.741C-674.809 326.2 -630.522 261.592 -550.826 241.433L321.302 20.8319C400.998 0.671805 485.924 32.5987 510.988 92.1383L718.617 585.356C743.681 644.896 699.394 709.505 619.697 729.663Z" fill="#DDDEDE"/>
</g>
<g filter="url(#filter1_d_3_1607)">
<path d="M600.49 846.306L-393.187 1097.65C-409.767 1101.85 -427.817 1100.76 -443.366 1094.64C-458.916 1088.52 -470.691 1077.86 -476.101 1065.01L-733.698 453.091C-739.108 440.239 -737.711 426.247 -729.812 414.194C-721.914 402.14 -708.163 393.013 -691.582 388.819L302.094 137.473C318.674 133.279 336.725 134.362 352.274 140.485C367.824 146.607 379.599 157.267 385.009 170.119L642.606 782.034C648.016 794.886 646.618 808.878 638.72 820.931C630.822 832.984 617.07 842.112 600.49 846.306V846.306Z" fill="#E4E8EA"/>
</g>
<g filter="url(#filter2_d_3_1607)">
<path d="M509.811 970.992L-501.058 1226.69C-515.358 1230.3 -530.927 1229.37 -544.338 1224.09C-557.749 1218.81 -567.905 1209.61 -572.572 1198.53L-835.778 573.288C-838.089 567.799 -838.982 562.012 -838.407 556.255C-837.832 550.499 -835.8 544.887 -832.427 539.739C-829.054 534.592 -824.406 530.01 -818.748 526.255C-813.091 522.499 -806.535 519.645 -799.454 517.854L211.415 262.159C218.495 260.368 225.962 259.675 233.388 260.121C240.814 260.567 248.054 262.142 254.695 264.757C261.335 267.371 267.247 270.974 272.091 275.36C276.935 279.745 280.618 284.827 282.929 290.316L546.135 915.557C550.801 926.642 549.596 938.71 542.784 949.106C535.972 959.502 524.111 967.375 509.811 970.992V970.992Z" fill="#F0F5F7"/>
</g>
</g>
<defs>
<filter id="filter0_d_3_1607" x="-666.754" y="8.78906" width="1402.38" height="961.517" filterUnits="userSpaceOnUse" color-interpolation-filters="sRGB">
<feFlood flood-opacity="0" result="BackgroundImageFix"/>
<feColorMatrix in="SourceAlpha" type="matrix" values="0 0 0 0 0 0 0 0 0 0 0 0 0 0 0 0 0 0 127 0" result="hardAlpha"/>
<feOffset dy="4"/>
<feGaussianBlur stdDeviation="5"/>
<feColorMatrix type="matrix" values="0 0 0 0 0 0 0 0 0 0 0 0 0 0 0 0 0 0 0.149 0"/>
<feBlend mode="normal" in2="BackgroundImageFix" result="effect1_dropShadow_3_1607"/>
<feBlend mode="normal" in="SourceGraphic" in2="effect1_dropShadow_3_1607" result="shape"/>
</filter>
<filter id="filter1_d_3_1607" x="-746.942" y="128.958" width="1402.79" height="985.209" filterUnits="userSpaceOnUse" color-interpolation-filters="sRGB">
<feFlood flood-opacity="0" result="BackgroundImageFix"/>
<feColorMatrix in="SourceAlpha" type="matrix" values="0 0 0 0 0 0 0 0 0 0 0 0 0 0 0 0 0 0 127 0" result="hardAlpha"/>
<feOffset dy="4"/>
<feGaussianBlur stdDeviation="5"/>
<feColorMatrix type="matrix" values="0 0 0 0 0 0 0 0 0 0 0 0 0 0 0 0 0 0 0.161 0"/>
<feBlend mode="normal" in2="BackgroundImageFix" result="effect1_dropShadow_3_1607"/>
<feBlend mode="normal" in="SourceGraphic" in2="effect1_dropShadow_3_1607" result="shape"/>
</filter>
<filter id="filter2_d_3_1607" x="-848.576" y="253.99" width="1407.51" height="988.865" filterUnits="userSpaceOnUse" color-interpolation-filters="sRGB">
<feFlood flood-opacity="0" result="BackgroundImageFix"/>
<feColorMatrix in="SourceAlpha" type="matrix" values="0 0 0 0 0 0 0 0 0 0 0 0 0 0 0 0 0 0 127 0" result="hardAlpha"/>
<feOffset dy="4"/>
<feGaussianBlur stdDeviation="5"/>
<feColorMatrix type="matrix" values="0 0 0 0 0 0 0 0 0 0 0 0 0 0 0 0 0 0 0.161 0"/>
<feBlend mode="normal" in2="BackgroundImageFix" result="effect1_dropShadow_3_1607"/>
<feBlend mode="normal" in="SourceGraphic" in2="effect1_dropShadow_3_1607" result="shape"/>
</filter>
<clipPath id="clip0_3_1607">
<rect width="1342" height="425" fill="white" transform="translate(-578)"/>
</clipPath>
</defs>
</svg>
