<svg width="18" height="18" viewBox="0 0 18 18" fill="none" xmlns="http://www.w3.org/2000/svg">
<circle cx="9" cy="9" r="9" fill="#FD7500"/>
<path fill-rule="evenodd" clip-rule="evenodd" d="M13.1667 8.99967C13.1667 8.29864 12.6957 7.74967 11.9167 7.74967H10.6362L10.6478 7.71812C10.6594 7.68682 10.692 7.60089 10.7237 7.5174L10.7237 7.51725L10.7238 7.51708C10.7518 7.44319 10.7791 7.37128 10.7904 7.34088C10.8697 7.12824 10.9275 6.95691 10.9743 6.78723C11.045 6.53077 11.0833 6.29972 11.0833 6.08301C11.0833 5.46967 10.7049 5.08872 10.1451 4.92571C9.89261 4.85219 9.67283 4.83297 9.41666 4.83301H9.21687L9.09178 4.98879C8.95046 5.16477 8.67291 5.48194 8.35292 5.84759L8.35291 5.84759C7.7626 6.52214 7.02787 7.36172 6.73764 7.78442C6.66233 7.76206 6.58257 7.75005 6.5 7.75005H5.66666C5.20642 7.75005 4.83333 8.12314 4.83333 8.58338V12.3334C4.83333 12.7936 5.20642 13.1667 5.66666 13.1667H6.5C6.7863 13.1667 7.03888 13.0223 7.1889 12.8024C7.31531 12.8842 7.45634 12.9524 7.60963 13.0072C7.9606 13.1328 8.30868 13.1714 8.59766 13.1661L11.5 13.1663C12.648 13.1663 13.1667 11.4762 13.1667 8.99967ZM7.33333 11.4997L7.33333 11.5011C7.33382 11.8762 7.52213 12.0909 7.89036 12.2226C8.12942 12.3082 8.38557 12.3365 8.56794 12.3333L8.58333 12.333H11.5C11.923 12.333 12.3333 10.9958 12.3333 8.99967C12.3333 8.73296 12.2047 8.58301 11.9167 8.58301H10.25C9.75227 8.58301 9.64814 8.19815 9.75193 7.78147C9.77635 7.68345 9.81205 7.57558 9.86623 7.42907C9.87924 7.39389 9.91441 7.30119 9.9472 7.21477L9.94721 7.21473C9.97411 7.14383 9.99941 7.07716 10.0095 7.04995C10.081 6.85816 10.1317 6.70783 10.1709 6.56576C10.2233 6.37564 10.25 6.21492 10.25 6.08301C10.25 5.8951 10.1509 5.79534 9.91213 5.72581C9.81182 5.6966 9.71308 5.6805 9.60831 5.67264C9.38907 5.93473 9.0751 6.29293 8.75194 6.66162L8.75194 6.66162L8.75192 6.66164C8.12579 7.37599 7.46518 8.12967 7.39237 8.29967C7.35184 8.3943 7.33333 8.48293 7.33333 8.58301V11.4997ZM5.66666 12.3334V8.58338H6.49999V12.3334H5.66666Z" fill="white"/>
</svg>
