<svg width="20" height="20" viewBox="0 0 20 20" fill="none" xmlns="http://www.w3.org/2000/svg">
<path fill-rule="evenodd" clip-rule="evenodd" d="M20 9.99914C20 8.31666 18.8696 6.99914 17 6.99914H13.927L13.9548 6.92342C13.9826 6.84824 14.0609 6.64176 14.137 6.44124L14.1376 6.43964C14.2047 6.26276 14.27 6.09081 14.2971 6.01805C14.4872 5.5077 14.626 5.0965 14.7382 4.68927C14.9079 4.07378 15 3.51926 15 2.99915C15 1.52714 14.0919 0.612864 12.7483 0.221632C12.1423 0.0451736 11.6148 -0.00094637 11 -0.000854492H10.5205L10.2203 0.37303C9.88115 0.795355 9.21508 1.55647 8.44717 2.43396L8.44711 2.43403L8.44701 2.43415C7.03026 4.05306 5.2669 6.06805 4.57035 7.08255C4.38961 7.02887 4.19817 7.00004 4 7.00004H2C0.89543 7.00004 0 7.89547 0 9.00004V18C0 19.1046 0.89543 20 2 20H4C4.68713 20 5.29332 19.6535 5.65337 19.1257C5.95674 19.3219 6.29522 19.4857 6.66312 19.6173C7.50544 19.9187 8.34085 20.0112 9.0344 19.9986L16 19.9991C18.7551 19.9991 20 15.9427 20 9.99914ZM6 15.9991L6 16.0014C6.00076 16.9022 6.45271 17.4179 7.33688 17.7342C7.91062 17.9395 8.52537 18.0076 8.96307 17.9998L9 17.9991H16C17.0151 17.9991 18 14.7899 18 9.99914C18 9.35903 17.6912 8.99914 17 8.99914H13C11.8055 8.99914 11.5555 8.0755 11.8047 7.07545C11.8633 6.84021 11.9489 6.58131 12.079 6.22969C12.1102 6.14527 12.1946 5.92285 12.2733 5.71546L12.2739 5.71366L12.274 5.71346C12.3383 5.54398 12.3987 5.38489 12.4229 5.3198C12.5944 4.85951 12.7162 4.49872 12.8101 4.15775C12.9359 3.70146 13 3.31573 13 2.99914C13 2.54817 12.7622 2.30874 12.1891 2.14188C11.9484 2.07177 11.7114 2.03313 11.46 2.01427C10.9338 2.64327 10.1802 3.50297 9.40467 4.38782C7.90193 6.10228 6.31645 7.91114 6.14171 8.31912C6.04443 8.54625 6 8.75895 6 8.99914V15.9991ZM2 18V9.00005H4V18H2Z" fill="#65676B"/>
</svg>
