<svg width="805" height="612" viewBox="0 0 805 612" fill="none" xmlns="http://www.w3.org/2000/svg">
<g clip-path="url(#clip0_3_1306)">
<path d="M804.321 0.302246V107.037L520.063 212.311C449.58 238.42 373.799 194.765 350.803 114.744L318.202 1.25928H-0.167915L318.202 0.83953L804.321 0.302246Z" fill="#FDB153"/>
<path d="M804.321 107.037V417.486L374.228 576.741H190.031C178.417 563.312 169.909 547.486 165.112 530.392L-0.167915 1.25928H318.202L350.828 114.744C373.799 194.765 449.58 238.42 520.063 212.311L804.321 107.037Z" fill="#FDB153"/>
<path d="M804.321 107.037V417.486L374.228 576.741L295.861 605.788C257.332 620.059 216.755 607.324 190.073 576.766C178.459 563.337 169.951 547.511 165.154 530.417L-0.167915 1.25928H318.202L350.828 114.744C373.799 194.765 449.58 238.42 520.063 212.311L804.321 107.037Z" fill="#F8A43D"/>
<path d="M804.321 244.154V417.486L374.228 576.741L295.861 605.788C257.332 620.059 216.755 607.324 190.073 576.766C178.459 563.337 169.951 547.511 165.154 530.417L-0.167915 1.25928H156.893L240.675 292.643C263.671 372.623 339.452 416.311 409.935 390.211L804.321 244.154Z" fill="#F68C0B"/>
</g>
<defs>
<clipPath id="clip0_3_1306">
<rect width="806" height="612" fill="white"/>
</clipPath>
</defs>
</svg>
